<?xml version="1.0" encoding="UTF-8" standalone="no"?>
<!-- Created with Inkscape (http://www.inkscape.org/) -->

<svg
   height="312.72"
   width="1276.7996"
   sodipodi:docname="logo.svg"
   version="1.1"
   id="svg1"
   inkscape:version="1.3.2 (091e20e, 2023-11-25)"
   xmlns:inkscape="http://www.inkscape.org/namespaces/inkscape"
   xmlns:sodipodi="http://sodipodi.sourceforge.net/DTD/sodipodi-0.dtd"
   xmlns="http://www.w3.org/2000/svg"
   xmlns:svg="http://www.w3.org/2000/svg"
   xmlns:rdf="http://www.w3.org/1999/02/22-rdf-syntax-ns#"
   xmlns:cc="http://creativecommons.org/ns#"
   xmlns:dc="http://purl.org/dc/elements/1.1/">
  <sodipodi:namedview
     id="base"
     pagecolor="#ffffff"
     bordercolor="#000000"
     borderopacity="0.3"
     inkscape:pageopacity="0.0"
     inkscape:pageshadow="2"
     inkscape:zoom="0.42709821"
     inkscape:cx="832.36125"
     inkscape:cy="-11.706909"
     inkscape:document-units="px"
     inkscape:current-layer="layer1"
     showgrid="false"
     showguides="false"
     inkscape:window-width="1728"
     inkscape:window-height="1051"
     inkscape:window-x="0"
     inkscape:window-y="38"
     inkscape:window-maximized="1"
     showborder="true"
     inkscape:showpageshadow="false"
     inkscape:pagecheckerboard="0"
     inkscape:deskcolor="#d1d1d1" />
  <defs
     id="defs4" />
  <metadata
     id="metadata7">
    <rdf:RDF>
      <cc:Work
         rdf:about="">
        <dc:format>image/svg+xml</dc:format>
        <dc:type
           rdf:resource="http://purl.org/dc/dcmitype/StillImage" />
      </cc:Work>
    </rdf:RDF>
  </metadata>
  <g
     id="layer1"
     inkscape:groupmode="layer"
     inkscape:label="Layer 1"
     transform="translate(-81.936,-278.432)">
    <path
       style="font-style:italic;font-weight:900;font-size:192px;font-family:Lato;-inkscape-font-specification:'Lato Heavy Italic'"
       d="m 160.08,476.528 c -3.2,3.52 -6.272,6.496 -9.216,8.928 -2.944,2.432 -5.984,4.384 -9.12,5.856 -3.136,1.472 -6.496,2.528 -10.08,3.168 -3.52,0.704 -7.424,1.056 -11.712,1.056 -5.824,0 -11.072,-0.992 -15.744,-2.976 -4.672,-1.984 -8.672,-4.8 -12,-8.448 -3.264,-3.648 -5.792,-8.064 -7.584,-13.248 -1.792,-5.184 -2.688,-11.008 -2.688,-17.472 0,-8.128 1.312,-15.84 3.936,-23.136 2.688,-7.296 6.4,-13.696 11.136,-19.2 4.8,-5.504 10.464,-9.856 16.992,-13.056 6.528,-3.264 13.696,-4.896 21.504,-4.896 6.656,0 12.352,1.152 17.088,3.456 4.8,2.24 9.088,5.792 12.864,10.656 l -9.6,11.04 c -0.704,0.704 -1.504,1.344 -2.4,1.92 -0.896,0.512 -1.888,0.768 -2.976,0.768 -1.28,0 -2.368,-0.256 -3.264,-0.768 -0.832,-0.576 -1.76,-1.152 -2.784,-1.728 -1.024,-0.64 -2.272,-1.216 -3.744,-1.728 -1.472,-0.576 -3.392,-0.864 -5.76,-0.864 -2.944,0 -5.824,0.864 -8.64,2.592 -2.752,1.664 -5.216,4.096 -7.392,7.296 -2.176,3.2 -3.936,7.136 -5.28,11.808 -1.28,4.672 -1.92,9.984 -1.92,15.936 0,3.328 0.384,6.24 1.152,8.736 0.768,2.432 1.824,4.48 3.168,6.144 1.344,1.6 2.912,2.816 4.704,3.648 1.792,0.832 3.712,1.248 5.76,1.248 3.072,0 5.536,-0.416 7.392,-1.248 1.92,-0.896 3.584,-1.856 4.992,-2.88 1.408,-1.024 2.72,-1.952 3.936,-2.784 1.216,-0.896 2.688,-1.344 4.416,-1.344 0.96,0 1.888,0.224 2.784,0.672 0.96,0.448 1.76,1.056 2.4,1.824 z m 47.23195,-3.072 c 3.328,0 6.304,-0.992 8.928,-2.976 2.624,-2.048 4.832,-4.8 6.624,-8.256 1.856,-3.52 3.264,-7.584 4.224,-12.192 1.024,-4.672 1.536,-9.632 1.536,-14.88 0,-7.232 -0.992,-12.384 -2.976,-15.456 -1.92,-3.136 -5.088,-4.704 -9.504,-4.704 -3.328,0 -6.304,1.024 -8.928,3.072 -2.624,1.984 -4.864,4.704 -6.72,8.16 -1.792,3.456 -3.2,7.52 -4.224,12.192 -0.96,4.672 -1.44,9.632 -1.44,14.88 0,7.104 0.96,12.256 2.88,15.456 1.984,3.136 5.184,4.704 9.6,4.704 z m -2.688,22.08 c -5.568,0 -10.784,-0.928 -15.648,-2.784 -4.8,-1.856 -8.992,-4.544 -12.576,-8.064 -3.52,-3.584 -6.304,-7.968 -8.352,-13.152 -1.984,-5.248 -2.976,-11.264 -2.976,-18.048 0,-8.832 1.44,-16.928 4.32,-24.288 2.944,-7.424 6.88,-13.824 11.808,-19.2 4.928,-5.376 10.624,-9.568 17.088,-12.576 6.528,-3.008 13.376,-4.512 20.544,-4.512 5.568,0 10.752,0.928 15.552,2.784 4.8,1.856 8.96,4.576 12.48,8.16 3.584,3.52 6.4,7.904 8.448,13.152 2.048,5.184 3.072,11.168 3.072,17.952 0,8.704 -1.472,16.768 -4.416,24.192 -2.88,7.36 -6.784,13.76 -11.712,19.2 -4.928,5.376 -10.656,9.6 -17.184,12.672 -6.464,3.008 -13.28,4.512 -20.448,4.512 z m 60.09604,-1.536 12.096,-99.552 h 15.36 c 3.072,0 5.472,0.736 7.2,2.208 1.728,1.408 2.592,3.744 2.592,7.008 v 11.328 c 3.84,-6.784 8,-12 12.48,-15.648 4.48,-3.648 9.12,-5.472 13.92,-5.472 2.688,0 5.344,0.608 7.968,1.824 l -5.376,27.552 c -3.264,-1.408 -6.368,-2.112 -9.312,-2.112 -4.928,0 -9.312,2.24 -13.152,6.72 -3.776,4.416 -6.848,11.552 -9.216,21.408 l -5.376,44.736 z m 72,0 12.096,-99.552 h 15.36 c 3.072,0 5.472,0.736 7.2,2.208 1.728,1.408 2.592,3.744 2.592,7.008 v 11.328 c 3.84,-6.784 8,-12 12.48,-15.648 4.48,-3.648 9.12,-5.472 13.92,-5.472 2.688,0 5.344,0.608 7.968,1.824 l -5.376,27.552 c -3.264,-1.408 -6.368,-2.112 -9.312,-2.112 -4.928,0 -9.312,2.24 -13.152,6.72 -3.776,4.416 -6.848,11.552 -9.216,21.408 L 365.90399,494 Z M 492.8159,418.928 c 0,4.544 -0.896,8.704 -2.688,12.48 -1.792,3.776 -4.928,7.136 -9.408,10.08 -4.416,2.88 -10.4,5.344 -17.952,7.392 -7.488,2.048 -16.928,3.648 -28.32,4.8 0.128,6.784 1.6,11.744 4.416,14.88 2.88,3.136 7.104,4.704 12.672,4.704 2.624,0 4.896,-0.224 6.816,-0.672 1.92,-0.448 3.584,-1.024 4.992,-1.728 1.472,-0.704 2.784,-1.44 3.936,-2.208 1.152,-0.768 2.24,-1.504 3.264,-2.208 1.088,-0.704 2.208,-1.28 3.36,-1.728 1.152,-0.448 2.464,-0.672 3.936,-0.672 0.96,0 1.888,0.256 2.784,0.768 0.896,0.448 1.696,1.056 2.4,1.824 l 7.68,8.928 c -3.52,3.456 -6.976,6.464 -10.368,9.024 -3.328,2.496 -6.784,4.576 -10.368,6.24 -3.52,1.6 -7.296,2.784 -11.328,3.552 -3.968,0.768 -8.32,1.152 -13.056,1.152 -5.888,0 -11.296,-0.992 -16.224,-2.976 -4.928,-2.048 -9.184,-4.896 -12.768,-8.544 -3.52,-3.712 -6.272,-8.16 -8.256,-13.344 -1.92,-5.184 -2.88,-10.944 -2.88,-17.28 0,-5.312 0.576,-10.496 1.728,-15.552 1.216,-5.056 2.912,-9.792 5.088,-14.208 2.24,-4.48 4.96,-8.576 8.16,-12.288 3.2,-3.776 6.784,-7.008 10.752,-9.696 4.032,-2.688 8.416,-4.768 13.152,-6.24 4.8,-1.536 9.888,-2.304 15.264,-2.304 5.312,0 10.016,0.768 14.112,2.304 4.16,1.536 7.648,3.552 10.464,6.048 2.816,2.432 4.96,5.184 6.432,8.256 1.472,3.072 2.208,6.144 2.208,9.216 z m -34.944,-5.76 c -4.928,0 -9.248,1.984 -12.96,5.952 -3.712,3.904 -6.496,9.28 -8.352,16.128 6.208,-0.96 11.232,-1.952 15.072,-2.976 3.84,-1.088 6.816,-2.24 8.928,-3.456 2.112,-1.28 3.52,-2.624 4.224,-4.032 0.768,-1.472 1.152,-3.04 1.152,-4.704 0,-1.664 -0.64,-3.232 -1.92,-4.704 -1.28,-1.472 -3.328,-2.208 -6.144,-2.208 z m 107.90385,2.208 c -0.896,1.152 -1.728,1.984 -2.496,2.496 -0.768,0.512 -1.792,0.768 -3.072,0.768 -1.28,0 -2.56,-0.288 -3.84,-0.864 -1.216,-0.576 -2.56,-1.216 -4.032,-1.92 -1.408,-0.768 -3.04,-1.44 -4.896,-2.016 -1.792,-0.576 -3.872,-0.864 -6.24,-0.864 -4.416,0 -7.584,0.864 -9.504,2.592 -1.856,1.664 -2.784,3.84 -2.784,6.528 0,1.728 0.512,3.2 1.536,4.416 1.088,1.216 2.496,2.304 4.224,3.264 1.728,0.96 3.68,1.856 5.856,2.688 2.24,0.768 4.512,1.664 6.816,2.688 2.304,0.96 4.544,2.08 6.72,3.36 2.24,1.28 4.224,2.848 5.952,4.704 1.728,1.856 3.104,4.064 4.128,6.624 1.088,2.56 1.632,5.6 1.632,9.12 0,4.992 -0.992,9.728 -2.976,14.208 -1.984,4.416 -4.832,8.288 -8.544,11.616 -3.712,3.264 -8.224,5.888 -13.536,7.872 -5.248,1.92 -11.168,2.88 -17.76,2.88 -3.136,0 -6.24,-0.32 -9.312,-0.96 -3.072,-0.64 -5.984,-1.504 -8.736,-2.592 -2.688,-1.088 -5.152,-2.368 -7.392,-3.84 -2.24,-1.536 -4.064,-3.168 -5.472,-4.896 l 7.296,-10.944 c 0.896,-1.28 1.92,-2.272 3.072,-2.976 1.216,-0.768 2.688,-1.152 4.416,-1.152 1.6,0 2.976,0.384 4.128,1.152 l 3.744,2.496 c 1.344,0.896 2.944,1.728 4.8,2.496 1.856,0.768 4.288,1.152 7.296,1.152 4.224,0 7.36,-0.928 9.408,-2.784 2.048,-1.92 3.072,-4.16 3.072,-6.72 0,-1.984 -0.544,-3.616 -1.632,-4.896 -1.024,-1.28 -2.4,-2.368 -4.128,-3.264 -1.728,-0.96 -3.68,-1.792 -5.856,-2.496 -2.176,-0.768 -4.416,-1.6 -6.72,-2.496 -2.304,-0.896 -4.544,-1.92 -6.72,-3.072 -2.176,-1.216 -4.128,-2.72 -5.856,-4.512 -1.728,-1.792 -3.136,-4 -4.224,-6.624 -1.024,-2.624 -1.536,-5.792 -1.536,-9.504 0,-4.608 0.832,-9.088 2.496,-13.44 1.728,-4.352 4.256,-8.192 7.584,-11.52 3.392,-3.392 7.584,-6.112 12.576,-8.16 4.992,-2.048 10.816,-3.072 17.472,-3.072 6.656,0 12.576,1.152 17.76,3.456 5.248,2.304 9.568,5.12 12.96,8.448 z m -3.93591,175.776 23.904,-196.704 h 15.36 c 3.072,0 5.472,0.736 7.2,2.208 1.728,1.408 2.592,3.744 2.592,7.008 v 9.024 c 4.544,-6.144 9.6,-10.976 15.168,-14.496 5.568,-3.52 11.52,-5.28 17.856,-5.28 4.096,0 7.84,0.736 11.232,2.208 3.392,1.408 6.304,3.648 8.736,6.72 2.496,3.072 4.416,7.008 5.76,11.808 1.408,4.736 2.112,10.4 2.112,16.992 0,8.704 -1.344,16.992 -4.032,24.864 -2.624,7.808 -6.176,14.688 -10.656,20.64 -4.48,5.952 -9.664,10.688 -15.552,14.208 -5.824,3.456 -11.936,5.184 -18.336,5.184 -4.16,0 -7.872,-0.672 -11.136,-2.016 -3.264,-1.344 -6.144,-3.136 -8.64,-5.376 l -12.576,103.008 z m 70.176,-175.68 c -2.048,0 -4.192,0.8 -6.432,2.4 -2.24,1.536 -4.416,3.68 -6.528,6.432 -2.048,2.688 -4,5.856 -5.856,9.504 -1.792,3.648 -3.296,7.552 -4.512,11.712 l -2.976,24 c 1.856,1.472 3.904,2.528 6.144,3.168 2.304,0.64 4.48,0.96 6.528,0.96 3.456,0 6.624,-1.152 9.504,-3.456 2.944,-2.304 5.472,-5.312 7.584,-9.024 2.112,-3.776 3.744,-8.064 4.896,-12.864 1.216,-4.8 1.824,-9.696 1.824,-14.688 0,-6.336 -0.928,-10.944 -2.784,-13.824 -1.856,-2.88 -4.32,-4.32 -7.392,-4.32 z m 87.36007,57.984 c 3.328,0 6.304,-0.992 8.928,-2.976 2.624,-2.048 4.832,-4.8 6.624,-8.256 1.856,-3.52 3.264,-7.584 4.224,-12.192 1.024,-4.672 1.536,-9.632 1.536,-14.88 0,-7.232 -0.992,-12.384 -2.976,-15.456 -1.92,-3.136 -5.088,-4.704 -9.504,-4.704 -3.328,0 -6.304,1.024 -8.928,3.072 -2.624,1.984 -4.864,4.704 -6.72,8.16 -1.792,3.456 -3.2,7.52 -4.224,12.192 -0.96,4.672 -1.44,9.632 -1.44,14.88 0,7.104 0.96,12.256 2.88,15.456 1.984,3.136 5.184,4.704 9.6,4.704 z m -2.688,22.08 c -5.568,0 -10.784,-0.928 -15.648,-2.784 -4.8,-1.856 -8.992,-4.544 -12.576,-8.064 -3.52,-3.584 -6.304,-7.968 -8.352,-13.152 -1.984,-5.248 -2.976,-11.264 -2.976,-18.048 0,-8.832 1.44,-16.928 4.32,-24.288 2.944,-7.424 6.88,-13.824 11.808,-19.2 4.928,-5.376 10.624,-9.568 17.088,-12.576 6.528,-3.008 13.376,-4.512 20.544,-4.512 5.568,0 10.752,0.928 15.552,2.784 4.8,1.856 8.96,4.576 12.48,8.16 3.584,3.52 6.4,7.904 8.448,13.152 2.048,5.184 3.072,11.168 3.072,17.952 0,8.704 -1.472,16.768 -4.416,24.192 -2.88,7.36 -6.784,13.76 -11.712,19.2 -4.928,5.376 -10.656,9.6 -17.184,12.672 -6.464,3.008 -13.28,4.512 -20.448,4.512 z M 834.95995,494 l 7.488,-63.264 c 0.128,-1.024 0.224,-1.952 0.288,-2.784 0.064,-0.896 0.096,-1.728 0.096,-2.496 0,-3.392 -0.608,-5.728 -1.824,-7.008 -1.152,-1.344 -2.912,-2.016 -5.28,-2.016 -2.176,0 -4.448,0.672 -6.816,2.016 -2.368,1.344 -4.64,3.232 -6.816,5.664 -2.112,2.432 -4.064,5.408 -5.856,8.928 -1.792,3.456 -3.2,7.296 -4.224,11.52 l -5.472,49.44 h -29.76 l 11.904,-99.552 h 15.36 c 3.072,0 5.472,0.736 7.2,2.208 1.728,1.408 2.592,3.744 2.592,7.008 v 7.968 c 4.8,-6.4 10.048,-11.104 15.744,-14.112 5.696,-3.072 11.584,-4.608 17.664,-4.608 3.712,0 7.104,0.672 10.176,2.016 3.136,1.344 5.824,3.328 8.064,5.952 2.24,2.56 4,5.728 5.28,9.504 1.28,3.776 1.92,8.128 1.92,13.056 0,1.152 -0.064,2.336 -0.192,3.552 -0.064,1.216 -0.16,2.464 -0.288,3.744 l -7.488,63.264 z m 117.50385,0 c -1.856,0 -3.424,-0.224 -4.704,-0.672 -1.216,-0.512 -2.208,-1.184 -2.976,-2.016 -0.704,-0.832 -1.216,-1.824 -1.536,-2.976 -0.256,-1.152 -0.384,-2.4 -0.384,-3.744 v -8.352 c -4.544,6.016 -9.568,10.752 -15.072,14.208 -5.504,3.392 -11.36,5.088 -17.568,5.088 -4.096,0 -7.84,-0.704 -11.232,-2.112 -3.392,-1.472 -6.336,-3.744 -8.832,-6.816 -2.432,-3.072 -4.352,-6.976 -5.76,-11.712 -1.344,-4.8 -2.016,-10.528 -2.016,-17.184 0,-5.76 0.608,-11.36 1.824,-16.8 1.216,-5.504 2.912,-10.656 5.088,-15.456 2.176,-4.8 4.768,-9.184 7.776,-13.152 3.008,-4.032 6.304,-7.456 9.888,-10.272 3.648,-2.88 7.488,-5.12 11.52,-6.72 4.032,-1.6 8.192,-2.4 12.48,-2.4 4.096,0 7.776,0.704 11.04,2.112 3.328,1.344 6.24,3.136 8.736,5.376 l 15.264,-121.968 h 29.184 L 968.3998,494 Z m -30.336,-21.12 c 2.048,0 4.16,-0.768 6.336,-2.304 2.24,-1.536 4.384,-3.648 6.432,-6.336 2.112,-2.688 4.064,-5.824 5.856,-9.408 1.792,-3.648 3.328,-7.552 4.608,-11.712 l 3.072,-24.192 c -1.856,-1.472 -3.936,-2.528 -6.24,-3.168 -2.24,-0.64 -4.384,-0.96 -6.432,-0.96 -3.456,0 -6.656,1.152 -9.6,3.456 -2.88,2.304 -5.376,5.344 -7.488,9.12 -2.112,3.712 -3.776,7.968 -4.992,12.768 -1.152,4.8 -1.728,9.696 -1.728,14.688 0,6.336 0.928,10.944 2.784,13.824 1.856,2.816 4.32,4.224 7.392,4.224 z m 153.9841,-53.952 c 0,4.544 -0.896,8.704 -2.688,12.48 -1.792,3.776 -4.928,7.136 -9.408,10.08 -4.416,2.88 -10.4,5.344 -17.952,7.392 -7.488,2.048 -16.928,3.648 -28.32,4.8 0.128,6.784 1.6,11.744 4.416,14.88 2.88,3.136 7.104,4.704 12.672,4.704 2.624,0 4.896,-0.224 6.816,-0.672 1.92,-0.448 3.584,-1.024 4.992,-1.728 1.472,-0.704 2.784,-1.44 3.936,-2.208 1.152,-0.768 2.24,-1.504 3.264,-2.208 1.088,-0.704 2.208,-1.28 3.36,-1.728 1.152,-0.448 2.464,-0.672 3.936,-0.672 0.96,0 1.888,0.256 2.784,0.768 0.896,0.448 1.696,1.056 2.4,1.824 l 7.68,8.928 c -3.52,3.456 -6.976,6.464 -10.368,9.024 -3.328,2.496 -6.784,4.576 -10.368,6.24 -3.52,1.6 -7.296,2.784 -11.328,3.552 -3.968,0.768 -8.32,1.152 -13.056,1.152 -5.888,0 -11.296,-0.992 -16.224,-2.976 -4.928,-2.048 -9.184,-4.896 -12.76798,-8.544 -3.52,-3.712 -6.272,-8.16 -8.256,-13.344 -1.92,-5.184 -2.88,-10.944 -2.88,-17.28 0,-5.312 0.576,-10.496 1.728,-15.552 1.216,-5.056 2.912,-9.792 5.088,-14.208 2.24,-4.48 4.95998,-8.576 8.15998,-12.288 3.2,-3.776 6.784,-7.008 10.752,-9.696 4.032,-2.688 8.416,-4.768 13.152,-6.24 4.8,-1.536 9.888,-2.304 15.264,-2.304 5.312,0 10.016,0.768 14.112,2.304 4.16,1.536 7.648,3.552 10.464,6.048 2.816,2.432 4.96,5.184 6.432,8.256 1.472,3.072 2.208,6.144 2.208,9.216 z m -34.944,-5.76 c -4.928,0 -9.248,1.984 -12.96,5.952 -3.712,3.904 -6.496,9.28 -8.352,16.128 6.208,-0.96 11.232,-1.952 15.072,-2.976 3.84,-1.088 6.816,-2.24 8.928,-3.456 2.112,-1.28 3.52,-2.624 4.224,-4.032 0.768,-1.472 1.152,-3.04 1.152,-4.704 0,-1.664 -0.64,-3.232 -1.92,-4.704 -1.28,-1.472 -3.328,-2.208 -6.144,-2.208 z m 98.1119,80.832 7.488,-63.264 c 0.128,-1.024 0.224,-1.952 0.288,-2.784 0.064,-0.896 0.096,-1.728 0.096,-2.496 0,-3.392 -0.608,-5.728 -1.824,-7.008 -1.152,-1.344 -2.912,-2.016 -5.28,-2.016 -2.176,0 -4.448,0.672 -6.816,2.016 -2.368,1.344 -4.64,3.232 -6.816,5.664 -2.112,2.432 -4.064,5.408 -5.856,8.928 -1.792,3.456 -3.2,7.296 -4.224,11.52 l -5.472,49.44 h -29.76 l 11.904,-99.552 h 15.36 c 3.072,0 5.472,0.736 7.2,2.208 1.728,1.408 2.592,3.744 2.592,7.008 v 7.968 c 4.8,-6.4 10.048,-11.104 15.744,-14.112 5.696,-3.072 11.584,-4.608 17.664,-4.608 3.712,0 7.104,0.672 10.176,2.016 3.136,1.344 5.824,3.328 8.064,5.952 2.24,2.56 4,5.728 5.28,9.504 1.28,3.776 1.92,8.128 1.92,13.056 0,1.152 -0.064,2.336 -0.192,3.552 -0.064,1.216 -0.16,2.464 -0.288,3.744 l -7.488,63.264 z m 126.1438,-17.472 c -3.2,3.52 -6.272,6.496 -9.216,8.928 -2.944,2.432 -5.984,4.384 -9.12,5.856 -3.136,1.472 -6.496,2.528 -10.08,3.168 -3.52,0.704 -7.424,1.056 -11.712,1.056 -5.824,0 -11.072,-0.992 -15.744,-2.976 -4.672,-1.984 -8.672,-4.8 -12,-8.448 -3.264,-3.648 -5.792,-8.064 -7.584,-13.248 -1.792,-5.184 -2.688,-11.008 -2.688,-17.472 0,-8.128 1.312,-15.84 3.936,-23.136 2.688,-7.296 6.4,-13.696 11.136,-19.2 4.8,-5.504 10.464,-9.856 16.992,-13.056 6.528,-3.264 13.696,-4.896 21.504,-4.896 6.656,0 12.352,1.152 17.088,3.456 4.8,2.24 9.088,5.792 12.864,10.656 l -9.6,11.04 c -0.704,0.704 -1.504,1.344 -2.4,1.92 -0.896,0.512 -1.888,0.768 -2.976,0.768 -1.28,0 -2.368,-0.256 -3.264,-0.768 -0.832,-0.576 -1.76,-1.152 -2.784,-1.728 -1.024,-0.64 -2.272,-1.216 -3.744,-1.728 -1.472,-0.576 -3.392,-0.864 -5.76,-0.864 -2.944,0 -5.824,0.864 -8.64,2.592 -2.752,1.664 -5.216,4.096 -7.392,7.296 -2.176,3.2 -3.936,7.136 -5.28,11.808 -1.28,4.672 -1.92,9.984 -1.92,15.936 0,3.328 0.384,6.24 1.152,8.736 0.768,2.432 1.824,4.48 3.168,6.144 1.344,1.6 2.912,2.816 4.704,3.648 1.792,0.832 3.712,1.248 5.76,1.248 3.072,0 5.536,-0.416 7.392,-1.248 1.92,-0.896 3.584,-1.856 4.992,-2.88 1.408,-1.024 2.72,-1.952 3.936,-2.784 1.216,-0.896 2.688,-1.344 4.416,-1.344 0.96,0 1.888,0.224 2.784,0.672 0.96,0.448 1.76,1.056 2.4,1.824 z m 93.312,-57.6 c 0,4.544 -0.896,8.704 -2.688,12.48 -1.792,3.776 -4.928,7.136 -9.408,10.08 -4.416,2.88 -10.4,5.344 -17.952,7.392 -7.488,2.048 -16.928,3.648 -28.32,4.8 0.128,6.784 1.6,11.744 4.416,14.88 2.88,3.136 7.104,4.704 12.672,4.704 2.624,0 4.896,-0.224 6.816,-0.672 1.92,-0.448 3.584,-1.024 4.992,-1.728 1.472,-0.704 2.784,-1.44 3.936,-2.208 1.152,-0.768 2.24,-1.504 3.264,-2.208 1.088,-0.704 2.208,-1.28 3.36,-1.728 1.152,-0.448 2.464,-0.672 3.936,-0.672 0.96,0 1.888,0.256 2.784,0.768 0.896,0.448 1.696,1.056 2.4,1.824 l 7.68,8.928 c -3.52,3.456 -6.976,6.464 -10.368,9.024 -3.328,2.496 -6.784,4.576 -10.368,6.24 -3.52,1.6 -7.296,2.784 -11.328,3.552 -3.968,0.768 -8.32,1.152 -13.056,1.152 -5.888,0 -11.296,-0.992 -16.224,-2.976 -4.928,-2.048 -9.184,-4.896 -12.768,-8.544 -3.52,-3.712 -6.272,-8.16 -8.256,-13.344 -1.92,-5.184 -2.88,-10.944 -2.88,-17.28 0,-5.312 0.576,-10.496 1.728,-15.552 1.216,-5.056 2.912,-9.792 5.088,-14.208 2.24,-4.48 4.96,-8.576 8.16,-12.288 3.2,-3.776 6.784,-7.008 10.752,-9.696 4.032,-2.688 8.416,-4.768 13.152,-6.24 4.8,-1.536 9.888,-2.304 15.264,-2.304 5.312,0 10.016,0.768 14.112,2.304 4.16,1.536 7.648,3.552 10.464,6.048 2.816,2.432 4.96,5.184 6.432,8.256 1.472,3.072 2.208,6.144 2.208,9.216 z m -34.944,-5.76 c -4.928,0 -9.248,1.984 -12.96,5.952 -3.712,3.904 -6.496,9.28 -8.352,16.128 6.208,-0.96 11.232,-1.952 15.072,-2.976 3.84,-1.088 6.816,-2.24 8.928,-3.456 2.112,-1.28 3.52,-2.624 4.224,-4.032 0.768,-1.472 1.152,-3.04 1.152,-4.704 0,-1.664 -0.64,-3.232 -1.92,-4.704 -1.28,-1.472 -3.328,-2.208 -6.144,-2.208 z"
       id="text1"
       aria-label="correspondence"
       sodipodi:nodetypes="csscsscsscccsccccscccscscsccsscscscccscccscscccscsscccscscssccscccsccscscssccsccccccscscssccsccccssccccsscscssccccccscccscccccsccssscccccssscsscccscscscccscscccsscccccssssscscccscscscssscccccscscsscccscscsscccsccccccscccsssscccscscccscsscccscscssccscccscccscssccccccscsccsccssccccscccsccscccscsccsscccccssccccccscccscsssccccsscscssccccccscccscccccsccssscccccssscccscssccccccscsccsccsscccccsscsscsscccsccccscccscscsccsscscscccssccccsscscssccccccscccscccccsccssscccccsss" />
  </g>
</svg>
